<svg xmlns="http://www.w3.org/2000/svg" viewBox="0 0 250 250"><defs><style>.cls-1{fill:#fff;}</style></defs><g id="Layer_2" data-name="Layer 2"><g id="numbers"><path class="cls-1" d="M125,0A125,125,0,1,0,250,125,125,125,0,0,0,125,0Zm49.83,196H75.61V174.51l45.7-48q16.91-19.25,16.9-30.57,0-9.18-4-14t-11.62-4.78a14.45,14.45,0,0,0-12.2,6.4q-4.69,6.39-4.69,16h-33a46.72,46.72,0,0,1,6.54-24.17A45.88,45.88,0,0,1,97.39,58a53.87,53.87,0,0,1,26-6.25q23.05,0,35.5,10.64T171.31,93a44.47,44.47,0,0,1-3.12,16.36,72,72,0,0,1-9.72,16.7q-6.58,8.73-21.24,23.38l-18.36,21.2h56Z"/></g></g></svg>