<svg xmlns="http://www.w3.org/2000/svg" viewBox="0 0 250 250"><defs><style>.cls-1{fill:#fff;}</style></defs><g id="Layer_2" data-name="Layer 2"><g id="numbers"><path class="cls-1" d="M125,0A125,125,0,1,0,250,125,125,125,0,0,0,125,0Zm35.18,186.52Q145.54,198,121.7,198a63,63,0,0,1-25.92-5.32q-12-5.32-18.12-14.75a38.34,38.34,0,0,1-6.15-21.43h33.1a14.8,14.8,0,0,0,5.28,11.32,18.6,18.6,0,0,0,13,4.79q8.69,0,13.86-4.83a16.18,16.18,0,0,0,5.18-12.36q0-10.74-5.37-15.23t-14.85-4.49h-16V111.13h15.53q18.45,0,18.45-18.06a15.64,15.64,0,0,0-4.39-11.48q-4.4-4.44-12.4-4.44A17.82,17.82,0,0,0,111.5,81a11.63,11.63,0,0,0-4.83,9.47H73.75a33.73,33.73,0,0,1,6.25-20A41.32,41.32,0,0,1,97.34,56.69a59.22,59.22,0,0,1,24.36-4.93q23.73,0,37.31,10.84t13.57,29.78A30.08,30.08,0,0,1,167,109.72q-5.62,8.15-16.36,13.23,11.32,4.1,17.77,12.45t6.45,20.66Q174.83,175.1,160.18,186.52Z"/></g></g></svg>