<svg xmlns="http://www.w3.org/2000/svg" viewBox="0 0 250 221.73"><defs><style>.cls-1{fill:#fff;}</style></defs><g id="Layer_2" data-name="Layer 2"><g id="business"><path class="cls-1" d="M125,0c24.38,0,48.76,0,73.14,0,13.22,0,19.42,4.55,23.69,16.83,7.64,22,15.67,43.81,22.74,66a99.54,99.54,0,0,1,5,27.81c.59,29.38.32,58.79,0,88.19-.18,16.49-12.21,26-26.32,21.61-8.3-2.62-13.62-9.08-13.67-18.32,0-6.37-1.85-8.74-8.6-8.71q-75.52.39-151,.05c-6.6,0-9.43,1.44-9.51,8.71-.11,11-8.6,19-19.09,19.54A19.38,19.38,0,0,1,.93,203.6C-.1,187.78.31,171.86.23,156,.14,139-.35,122.06.45,105.14c.36-7.73,2.84-15.52,5.32-23,7.17-21.57,14.77-43,22.3-64.45C32.91,3.92,38.68,0,53.48,0Q89.27,0,125,0Zm96.74,83.26c.21-1.4.61-2.26.39-2.92C216.61,63.55,211.1,46.72,205.3,30c-2.46-7.07-7.9-10.08-15.41-10.07q-64.81.15-129.63,0c-8.34,0-13.52,3.86-16.12,11.47-3.26,9.5-6.38,19-9.51,28.58-2.43,7.43-4.79,14.88-7.47,23.26ZM201.61,153a21.24,21.24,0,1,0-21.24-21.08A20.89,20.89,0,0,0,201.61,153Zm-153.23-.06c12,.08,21.29-9,21.4-20.8A21.1,21.1,0,0,0,48.31,110.5a21.22,21.22,0,0,0,.07,42.44Z"/></g></g></svg>