<svg xmlns="http://www.w3.org/2000/svg" viewBox="0 0 250 249.95"><defs><style>.cls-1{fill:#00b4a0;}</style></defs><g id="Layer_2" data-name="Layer 2"><g id="check"><path class="cls-1" d="M124.16,250C52.71,249.44-1.66,193.31,0,120,1.52,56,53.73-.1,125.74,0,196.19.1,250.45,56.78,250,128.85,249.58,195.43,192.42,250.43,124.16,250Zm.89-225.82C70.1,23.78,24.38,68.63,23.84,123.4a101.67,101.67,0,0,0,99.32,102.73C177.45,227.32,225.25,183,226,127.86,226.75,69.66,182.54,24.5,125.05,24.13Z"/><path class="cls-1" d="M198.47,87.2Q149,136.57,99.8,185.76L39.19,125.17c5.27-4.48,11-9.37,17.63-15l43,42.61,81.49-83.12Z"/></g></g></svg>