<svg xmlns="http://www.w3.org/2000/svg" viewBox="0 0 250 225"><defs><style>.cls-1{fill:#fff;}</style></defs><g id="Layer_2" data-name="Layer 2"><g id="business"><rect class="cls-1" x="175" y="150" width="25" height="25"/><rect class="cls-1" x="175" y="100" width="25" height="25"/><path class="cls-1" d="M125,50V16.67A16.67,16.67,0,0,0,108.33,0H16.67A16.67,16.67,0,0,0,0,16.67V208.33A16.67,16.67,0,0,0,16.67,225H233.33A16.67,16.67,0,0,0,250,208.33V66.67A16.67,16.67,0,0,0,233.33,50ZM50,200H25V175H50Zm0-50H25V125H50Zm0-50H25V75H50Zm0-50H25V25H50Zm50,150H75V175h25Zm0-50H75V125h25Zm0-50H75V75h25Zm0-50H75V25h25ZM213.89,200H125V175h25V150H125V125h25V100H125V75h88.89A11.1,11.1,0,0,1,225,86.11V188.89A11.1,11.1,0,0,1,213.89,200Z"/></g></g></svg>