<svg xmlns="http://www.w3.org/2000/svg" viewBox="0 0 250 208.04"><defs><style>.cls-1{fill:#fff;}</style></defs><g id="Layer_2" data-name="Layer 2"><g id="business"><path class="cls-1" d="M227,80.09c-13.74,7.42-25.56,13.77-37.35,20.19-19.07,10.39-38.24,20.62-57.12,31.33-9.78,5.55-18.8,5.22-28.51-.13C72.75,114.26,41.35,97.35,10,80.35,4.85,77.56-.14,74.76,0,67.78c.13-6.52,4.63-9.43,9.63-12.16,31.1-17,62.28-33.83,93.18-51.16,10.68-6,20.38-5.91,31,0C169.41,24.24,205.17,43.65,241,63c6.11,3.31,9.07,7.85,9,14.78-.1,23.8,0,47.6-.06,71.39,0,9-4.38,14.13-11.55,14.12S227,158.26,227,149.13c-.09-19.9,0-39.81,0-59.72Z"/><path class="cls-1" d="M35.29,119.46c6.3,3.33,12.11,6.3,17.82,9.43C69.74,138,86.43,147,102.9,156.35c10.26,5.82,20,6.12,30.43.22,20.47-11.59,41.19-22.73,61.81-34,1.78-1,3.6-1.87,5.59-2.91,0,13.16,1.2,26.11-.55,38.66-.77,5.44-6.65,11.63-11.84,14.73-18.41,11-37.59,20.73-56.35,31.16-9.2,5.11-18,5.2-27.25.1-19-10.52-38.06-20.83-57.13-31.16-6.68-3.62-11.56-9.17-12.09-16.5C34.67,144.64,35.29,132.57,35.29,119.46Z"/></g></g></svg>