<svg xmlns="http://www.w3.org/2000/svg" viewBox="0 0 250 192.12"><defs><style>.cls-1{fill:#a0a0a0;}</style></defs><g id="Layer_2" data-name="Layer 2"><g id="mail"><path class="cls-1" d="M125.23,0c31.82,0,63.64,0,95.45.06a57.13,57.13,0,0,1,12.44,1.37c7.24,1.64,12.24,6.28,15.37,13,2.73,5.82,1.87,9-3.51,12.45-7,4.45-14,8.78-21,13.21-30.47,19.33-61,38.57-91.33,58.12-5.54,3.57-9.85,3.45-15.35-.08C80.27,74.37,43.1,50.9,6,27.34c-.78-.49-1.58-1-2.34-1.48-3.61-2.46-4.3-4.45-3-8.64C3.8,7,11.61,1,23,.35,27.63.09,32.24.07,36.85.06Q81,0,125.23.05Z"/><path class="cls-1" d="M124.7,192.1c-32.32,0-64.64.06-97-.06a45,45,0,0,1-12.08-1.55C7.79,188.25,2.9,182.68.55,174.91c-1.23-4-.48-6,3.14-8.31q44.75-28.18,89.54-56.31a8.78,8.78,0,0,1,9.6-.15c5.63,3.31,11.17,6.78,16.66,10.32,4.53,2.92,6.44,3,10.9.1,5.83-3.77,11.75-7.41,17.56-11.22,3.14-2,6-1.38,8.84.47q14.33,9.18,28.69,18.3,29.42,18.6,58.87,37.13c6,3.79,7,6.89,4,13.28-4,8.58-11.32,12.24-20.26,13.31a56.18,56.18,0,0,1-6.74.26Q173,192.12,124.7,192.1Z"/><path class="cls-1" d="M.41,147.62V44.75l80.8,51.42Z"/><path class="cls-1" d="M169,96.18,249.6,44.83V147.5Z"/></g></g></svg>