<svg xmlns="http://www.w3.org/2000/svg" viewBox="0 0 250 249.98"><defs><style>.cls-1{fill:#fff;}</style></defs><g id="Layer_2" data-name="Layer 2"><g id="business"><path class="cls-1" d="M124.25,250C52.74,249.47-1.61,193.47,0,120.07,1.48,55.53,54.25-.1,125.65,0c70.77.1,125,57,124.34,129.48C249.36,195.66,192.18,250.46,124.25,250ZM74.43,125.37h8.84c20.82,0,41.64-.05,62.46,0,12.1,0,16.35,4.29,16.54,16.41.12,7.9,0,15.8,0,23.69,0,10.93-.28,10.16,9.49,10.07,11.76-.1,20.95,4.14,26.35,15.1.25.51,1.12.72,2.35,1.47C224,164.35,231.91,132.91,222.23,98c-8.65-31.25-28.75-53-59.13-66.5-.51,2.57-.9,3.9-1,5.26-1.25,14.54-8.35,22.69-22.42,24.44-6.84.85-13.86.6-20.78.35-5.14-.19-7.51,1.31-7.12,6.85.4,5.72.16,11.48.09,17.22-.12,9.28-4.28,13.36-13.71,13.47-6.22.08-12.48-.31-18.64.33-1.84.19-4.69,3-4.85,4.89C74.07,110.87,74.43,117.56,74.43,125.37Zm-45.55-23-2.67,1.48c-5.57,27.81-1.05,54,15.21,77.79,17,24.91,40.26,39.76,71.38,43.48,0-6.24-.36-11.26.1-16.21.56-6.11-.72-9.67-7.75-10.72-7.68-1.14-12.58-6.84-15.21-13.87a28.43,28.43,0,0,1-1.77-11.89c.58-7.11-2-12.13-7.09-16.92C69.79,144.77,58.87,133.66,48,122.58,41.45,116,35.23,109.09,28.88,102.33Z"/></g></g></svg>