<svg xmlns="http://www.w3.org/2000/svg" viewBox="0 0 249.58 250"><defs><style>.cls-1{fill:#fff;}</style></defs><g id="Layer_2" data-name="Layer 2"><g id="phoneW"><path class="cls-1" d="M196.1,250c-2.7-.23-5.41-.4-8.1-.7a121.14,121.14,0,0,1-27-6.55c-16.21-5.76-31.16-13.95-45.32-23.62-23-15.67-43.15-34.43-61.6-55.13A266.77,266.77,0,0,1,19.8,116.54C12.31,103.12,6.28,89.11,2.73,74.1A93,93,0,0,1,0,52.06,18.56,18.56,0,0,1,5.67,38.6Q23.87,20.42,42.09,2.28A7.78,7.78,0,0,1,43.87.86C45.82-.21,47.78.5,49,2.69q3.65,6.78,7.23,13.58L78.81,58.83A8.8,8.8,0,0,1,77.2,69.67C73,73.88,68.76,78,64.61,82.28s-5.74,9.22-4.13,15.14a75.29,75.29,0,0,0,8.78,19.4C76.8,129.16,86.2,140,96.32,150.3c10.5,10.67,21.61,20.63,34.25,28.75,7,4.5,14.32,8.4,22.5,10.42,5.52,1.36,10.19-.24,14.12-4,5.17-5,10.17-10.13,15.24-15.19a8.36,8.36,0,0,1,10.88-1.37q26.69,15.74,53.36,31.46a6.35,6.35,0,0,1,2.91,3.06v1.78a19.6,19.6,0,0,1-1.84,2.54q-18.31,18.41-36.7,36.75a18.77,18.77,0,0,1-10,5.17c-1.2.23-2.44.25-3.66.36Z"/><path class="cls-1" d="M113.29,17.64V0c3.06.19,6.07.26,9,.57C155.28,4,182.74,18.7,205.87,41.92A139.07,139.07,0,0,1,240.25,98,118.92,118.92,0,0,1,246,131.09c0,.42,0,.84,0,1.35-.45,0-.82.07-1.19.07-5.17,0-10.35,0-15.53,0-1,0-1.29-.27-1.37-1.27q-3.69-47.66-38.29-80.67A117.63,117.63,0,0,0,132,20.26c-5.87-1.24-11.91-1.7-17.87-2.52Z"/><path class="cls-1" d="M113.33,41.28c49.11,3,88.28,44,91.1,91.15H186.89c-1.16-5.32-1.86-10.63-3.49-15.62Q168.57,71.47,122,60.64c-2.51-.58-5.1-.79-7.67-1.12-.64-.09-1.11-.13-1.11-1,0-5.61,0-11.21,0-16.81A2.31,2.31,0,0,1,113.33,41.28Z"/><path class="cls-1" d="M162.86,132.52H157c-2.72,0-5.44,0-8.15,0a1.32,1.32,0,0,1-1.57-1.16A46,46,0,0,0,123.52,102c-2.94-1.54-6.21-2.46-9.31-3.7-.39-.16-.95-.57-1-.87-.06-4.75,0-9.5,0-14.44a57.22,57.22,0,0,1,49.65,49.58Z"/></g></g></svg>