<svg xmlns="http://www.w3.org/2000/svg" viewBox="0 0 250 249.83"><defs><style>.cls-1{fill:#fff;}</style></defs><g id="Layer_2" data-name="Layer 2"><g id="business"><path class="cls-1" d="M125.18,158.55a33.73,33.73,0,1,1,33.54-33.62A33.69,33.69,0,0,1,125.18,158.55Z"/><path class="cls-1" d="M136.23,33.53c0,6.94.17,13.88,0,20.81-.26,7.86-4.68,12.83-11,12.84C118.61,67.2,114,62.06,114,54c-.13-13.66-.15-27.32,0-41,.09-8.38,4.35-13,11.31-13,6.55,0,10.63,4.6,10.9,12.72C136.41,19.65,136.23,26.59,136.23,33.53Z"/><path class="cls-1" d="M33.92,113.75c6.94,0,13.88-.14,20.82,0,7.62.21,12.59,4.78,12.62,11.19,0,6-4.78,10.81-12.14,11q-21.47.44-42.95,0C4.77,135.81.08,131.28,0,125.17c-.08-6.52,4.74-11,12.45-11.38,3.68-.17,7.37,0,11.06,0Z"/><path class="cls-1" d="M216.62,136.09c-6.93,0-13.88.15-20.81-.05-8.17-.24-13.17-4.79-13.05-11.46.12-6.18,5.3-10.66,13.08-10.75q20.81-.26,41.63,0c8,.11,12.53,4.36,12.53,11,0,6.47-4.78,10.79-12.56,11.17-3.46.17-6.94,0-10.41,0Z"/><path class="cls-1" d="M114,216.28c0-6.94-.15-13.88,0-20.82.21-7.73,4.75-12.88,11-12.86,6.39,0,11.1,4.93,11.23,12.61q.36,21.15,0,42.29c-.14,7.75-4.79,12.44-11.33,12.33S114.21,245.21,114,237.1C113.81,230.17,114,223.22,114,216.28Z"/><path class="cls-1" d="M183.92,192.24c-9.5.24-21.78-13-21-20.32.76-7.52,10.07-12.14,16.21-7.56a46.51,46.51,0,0,1,11.34,11.53c1.65,2.55,1.8,7.41.46,10.19C189.43,189.12,185.48,191,183.92,192.24Z"/><path class="cls-1" d="M87.66,78.2c-1.61,2-3.32,6.2-6.27,7.47A13.91,13.91,0,0,1,70.52,85c-4-2.25-7.21-6.19-10.26-9.82A10.32,10.32,0,0,1,60.62,61c3.72-3.82,9.91-4.69,14.21-1C80.12,64.42,86.54,68.39,87.66,78.2Z"/><path class="cls-1" d="M79,162.79c1.38,1,5.58,2.58,6.63,5.33,1.27,3.34,1.09,8.37-.64,11.44A29.69,29.69,0,0,1,74.49,190c-2.85,1.68-7.91,2.19-10.68.75s-5.2-5.83-5.69-9.22C57.15,174.67,69.85,162.55,79,162.79Z"/><path class="cls-1" d="M171.65,87.25c-1.6-1.13-5.77-2.57-6.89-5.27-1.37-3.3-1.46-8.36.2-11.39,2.29-4.17,6.46-7.52,10.34-10.57A10.9,10.9,0,0,1,190,61.57a10,10,0,0,1-.58,14.11C184.77,80.21,181.45,86.83,171.65,87.25Z"/></g></g></svg>