<svg xmlns="http://www.w3.org/2000/svg" viewBox="0 0 250 250"><defs><style>.cls-1{fill:#fff;}</style></defs><g id="Layer_2" data-name="Layer 2"><g id="social"><path class="cls-1" d="M125,0A125,125,0,1,0,250,125,125,125,0,0,0,125,0Zm86.59,82.59a68.66,68.66,0,0,1-15.44,15.88,1.73,1.73,0,0,0-.78,1.65,95.25,95.25,0,0,1-6.87,39c-8.92,22.27-23.59,39.52-45,50.75A91.83,91.83,0,0,1,112,199.58a101,101,0,0,1-32.68-1,96.8,96.8,0,0,1-31.75-12.5c-.28-.17-.54-.38-1-.73,18.59,1.7,35.13-2.89,49.79-14.09-15.41-1.37-25.88-9.16-31.64-23.79a32.54,32.54,0,0,0,15-.62c-10.4-2.67-18.23-8.57-23.18-18.1a32.84,32.84,0,0,1-3.65-15.65,33.4,33.4,0,0,0,15,4c-7.11-5.26-11.92-12-13.87-20.66a33.9,33.9,0,0,1,3.64-24.61C76.1,93.58,99.43,105.47,128,107.44c-.22-1.48-.44-2.7-.57-3.93-1.13-11.33,2.35-21,10.62-28.83a34.06,34.06,0,0,1,47.33.85,2,2,0,0,0,2.14.5A70.14,70.14,0,0,0,207,68.51c.15-.09.3-.16.69-.36A33,33,0,0,1,202,78.71a38.86,38.86,0,0,1-8.73,7.94,41.31,41.31,0,0,0,9.52-1.75c3.08-.92,6.11-2,9.2-3A7.56,7.56,0,0,1,211.59,82.59Z"/></g></g></svg>