<svg xmlns="http://www.w3.org/2000/svg" viewBox="0 0 250 181.51"><defs><style>.cls-1{fill:#fff;}</style></defs><g id="Layer_2" data-name="Layer 2"><g id="business"><path class="cls-1" d="M249.54,100.52a37,37,0,0,0-5.42-16.8c-7.08-10.88-15.4-21-23.1-31.45a15.25,15.25,0,0,0-13.38-6.61c-6.94.12-13.89-.12-20.83.11-3.93.12-5.52-1.37-5.47-5.26.08-6.29.12-12.59-.19-18.87C180.56,10,173.33,2.24,161.82.79a90.26,90.26,0,0,0-11-.75c-20-.07-39.94,0-59.91,0-2.82,0-5.65,0-8.47,0C62,.17,41.6-.27,21.25.7,7.56,1.35.31,10.21.08,23.94c-.16,9.33,0,18.66,0,28,0,23.44,0,46.87.06,70.3.06,13.18,5.45,21.4,16.53,24.1,4.63,1.13,6.19,3.15,7,7.6,2.91,16.86,16.71,27.74,34.28,27.52,15.64-.19,29.29-12.11,31.73-28.23.64-4.24,2.1-6.11,6.49-6.07q29,.19,58,.06c4.4,0,5.88,1.93,6.45,6.17,2,15.18,15.18,27.41,29.75,28.09,17.3.8,32.7-9.33,35.5-25.19,1.36-7.74,4.32-9.41,11.31-9.22,8.93.24,12.65-3.9,12.71-12.71C249.84,123.07,250.37,111.74,249.54,100.52ZM56.48,159.71A11.65,11.65,0,0,1,45,148c-.06-7.15,4.6-11.91,11.63-11.88a11.74,11.74,0,0,1,11.67,12.12C68.27,154.42,62.8,159.69,56.48,159.71Zm137.2,0c-6.33.18-12.13-5.53-12.15-12a11.91,11.91,0,0,1,11.57-11.65,11.63,11.63,0,0,1,12.08,11.71A12.17,12.17,0,0,1,193.68,159.76Zm33.64-68.19H184.19A2.61,2.61,0,0,1,181.58,89v-26a2.6,2.6,0,0,1,2.61-2.6h24.69a2.59,2.59,0,0,1,2.12,1.1l18.45,26A2.61,2.61,0,0,1,227.32,91.57Z"/></g></g></svg>