<svg xmlns="http://www.w3.org/2000/svg" viewBox="0 0 250 250"><defs><style>.cls-1{fill:#fff;}</style></defs><g id="Layer_2" data-name="Layer 2"><g id="social"><path class="cls-1" d="M125,0A125,125,0,1,0,250,125,125,125,0,0,0,125,0ZM58.28,164.26a6.44,6.44,0,0,1-4.89-4.7,48.66,48.66,0,0,1-1.32-7.29c-.3-2.72-.34-5.47-.44-7.29.16-7.4.49-13.86,2.3-20.14.72-2.47,1.82-4.67,4.2-6a5.9,5.9,0,0,1,5.21-.28c5,2,10.11,3.89,15.13,5.94C87,128,95.47,131.61,104,135c6.14,2.46,6.41,10.84,2.53,14.25a7.89,7.89,0,0,1-2.79,1.58q-20.3,6.45-40.61,12.8A8.68,8.68,0,0,1,58.28,164.26Zm66.85,30.43c-.07,4.37-.18,11.62-.32,18.87a11.5,11.5,0,0,1-.34,2.81,6.06,6.06,0,0,1-6.37,4.38,41.72,41.72,0,0,1-8-1A82.31,82.31,0,0,1,87.4,211a23.49,23.49,0,0,1-5.24-4.11c-2.17-2.28-2.21-5.13-.27-7.71,2.23-3,4.62-5.84,7-8.69,7.08-8.43,14.28-16.75,21.26-25.27,4.37-5.33,12.71-2.91,14.51,2.35a8,8,0,0,1,.43,2.48C125.14,177.3,125.13,184.56,125.13,194.69Zm.06-80.76a8,8,0,0,1-2.7,5.11c-2.84,2.36-6.41,2.3-9.53-.09A21.25,21.25,0,0,1,108,113.2q-15.88-25-31.76-50c-2.67-4.21-5.2-8.5-8-12.63-1.64-2.43-1.2-4.58.14-6.81a11.66,11.66,0,0,1,4.77-4,84.49,84.49,0,0,1,15.88-6.2,104.25,104.25,0,0,1,20.75-4.37c2.22-.19,4.48-.4,6.63.48,2.68,1.1,4.38,2.91,4.58,6,.48,7.31,1.06,14.6,1.56,21.9q.72,10.5,1.38,21c.46,7.44.87,14.89,1.3,22.33l.36,6.19A60.75,60.75,0,0,1,125.19,113.93Zm15.28,9.71q12.61-17,25.13-34.12c.26-.36.55-.69.83-1a6.64,6.64,0,0,1,9-1.63,27.51,27.51,0,0,1,7,6.49,81.26,81.26,0,0,1,13.07,21.07,47.13,47.13,0,0,1,1.49,5.13l-.25.07c0,3.53-1.63,5.82-5,6.67-9.4,2.37-18.82,4.62-28.22,7-4.6,1.15-9.18,2.39-13.75,3.64a8.52,8.52,0,0,1-9.63-4.51C138.4,129.41,138.34,126.52,140.47,123.64ZM197.52,176A27.5,27.5,0,0,1,194,183.7a84,84,0,0,1-13.29,16.75,42,42,0,0,1-6.54,5.11,5.8,5.8,0,0,1-6.72,0,10.35,10.35,0,0,1-2.66-2.89q-8.59-13.49-17.08-27.06c-1.84-2.93-3.59-5.91-5.4-8.85a8.58,8.58,0,0,1-1.4-5.21,8.74,8.74,0,0,1,6.18-7.79,7.28,7.28,0,0,1,4.68.13q19.86,6.65,39.73,13.26c.61.2,1.19.47,1.81.66C197.16,169,198.34,172.59,197.52,176Z"/></g></g></svg>